<?xml version="1.0" encoding="utf-8"?>
<!-- Generator: Adobe Illustrator 27.2.0, SVG Export Plug-In . SVG Version: 6.00 Build 0)  -->
<svg version="1.1" id="Layer_1" xmlns="http://www.w3.org/2000/svg" xmlns:xlink="http://www.w3.org/1999/xlink" x="0px" y="0px"
	 viewBox="0 0 25.5 25.5" style="enable-background:new 0 0 25.5 25.5;" xml:space="preserve">
<style type="text/css">
	.st0{fill-rule:evenodd;clip-rule:evenodd;fill:#231F20;}
	.st1{fill:#FFFFFF;filter:url(#Adobe_OpacityMaskFilter);}
	.st2{mask:url(#mask0_10543_7744_00000137093174941280608180000016412660126603072146_);}
	.st3{fill-rule:evenodd;clip-rule:evenodd;fill:#C8102E;}
	.st4{fill:#FFFFFF;filter:url(#Adobe_OpacityMaskFilter_00000125601964727812341890000012887427221101531829_);}
	.st5{mask:url(#mask0_10543_7753_00000005951734278139859820000012306841035347364798_);}
	.st6{fill:#FFFFFF;filter:url(#Adobe_OpacityMaskFilter_00000067923131089642033760000014608834388764303516_);}
	.st7{mask:url(#mask0_10543_7770_00000009556626832683783360000006468396663917841050_);}
	.st8{fill:#231F20;}
	.st9{fill:#C8102E;}
</style>
<g>
	<path class="st3" d="M16.3,13.9c-0.3,0-0.6,0.1-0.8,0.3c-0.2,0.2-0.3,0.5-0.3,0.8c0,0.3,0.1,0.6,0.3,0.8c0.5,0.5,1.2,0.4,1.6,0
		c0.2-0.2,0.3-0.5,0.3-0.8c0-0.3-0.1-0.6-0.3-0.8C16.9,14,16.6,13.9,16.3,13.9z"/>
	<path class="st3" d="M13.1,10.9c0.2-0.2,0.3-0.5,0.3-0.8c0-0.3-0.1-0.6-0.3-0.8c-0.2-0.2-0.5-0.3-0.8-0.3c-0.3,0-0.6,0.1-0.8,0.3
		c-0.2,0.2-0.3,0.5-0.3,0.8c0,0.3,0.1,0.6,0.3,0.8C12,11.4,12.7,11.4,13.1,10.9z"/>
	<defs>
		<filter id="Adobe_OpacityMaskFilter" filterUnits="userSpaceOnUse" x="2.3" y="5" width="21" height="15.5">
			<feColorMatrix  type="matrix" values="1 0 0 0 0  0 1 0 0 0  0 0 1 0 0  0 0 0 1 0"/>
		</filter>
	</defs>
	
		<mask maskUnits="userSpaceOnUse" x="2.3" y="5" width="21" height="15.5" id="mask0_10543_7753_00000005951734278139859820000012306841035347364798_">
		<path class="st1" d="M2.3,5h21v15.5h-21V5z"/>
	</mask>
	<g class="st5">
		<path class="st3" d="M17.7,16.5c-0.4,0.4-0.8,0.6-1.4,0.6c-0.5,0-1-0.2-1.4-0.6c-0.4-0.4-0.6-0.9-0.6-1.4s0.2-1,0.6-1.4
			c0.4-0.4,0.9-0.6,1.4-0.6c0.5,0,1,0.2,1.4,0.6s0.6,0.9,0.6,1.4S18.1,16.1,17.7,16.5z M10.8,16.9c-0.1,0-0.2,0-0.3-0.1
			c-0.2-0.1-0.2-0.4,0-0.6l7-8c0.1-0.2,0.4-0.2,0.6,0c0.2,0.1,0.2,0.4,0,0.6l-7,8C11,16.9,10.9,16.9,10.8,16.9z M10.9,8.7
			c0.4-0.4,0.9-0.6,1.4-0.6c0.5,0,1,0.2,1.4,0.6c0.4,0.4,0.6,0.9,0.6,1.4c0,0.5-0.2,1-0.6,1.4c-0.4,0.4-0.8,0.6-1.4,0.6
			c-0.5,0-1-0.2-1.4-0.6c-0.4-0.4-0.6-0.9-0.6-1.4C10.4,9.5,10.5,9.1,10.9,8.7z M8.5,9.5c0,0.2-0.2,0.4-0.4,0.4
			c-0.2,0-0.4-0.2-0.4-0.4V8.1c0-0.2,0.2-0.4,0.4-0.4c0.2,0,0.4,0.2,0.4,0.4V9.5z M8.5,13.4c0,0.2-0.2,0.4-0.4,0.4
			c-0.2,0-0.4-0.2-0.4-0.4v-1.4c0-0.2,0.2-0.4,0.4-0.4c0.2,0,0.4,0.2,0.4,0.4V13.4z M8.5,17.4c0,0.2-0.2,0.4-0.4,0.4
			c-0.2,0-0.4-0.2-0.4-0.4V16c0-0.2,0.2-0.4,0.4-0.4c0.2,0,0.4,0.2,0.4,0.4V17.4z M22.8,10.8c0.3,0,0.5-0.2,0.5-0.5V7.1
			c0-1.3-0.8-2.1-2.1-2.1H4.3C3,5,2.3,5.8,2.3,7.1v3.2c0,0.3,0.2,0.5,0.5,0.5c0.5,0,1,0.2,1.4,0.6c0.4,0.4,0.6,0.8,0.6,1.4
			c0,0.5-0.2,1-0.6,1.4c-0.4,0.4-0.8,0.6-1.4,0.6c-0.3,0-0.5,0.2-0.5,0.5v3.2c0,1.3,0.8,2.1,2.1,2.1h16.8c1.3,0,2.1-0.8,2.1-2.1
			v-3.2c0-0.3-0.2-0.5-0.5-0.5c-0.6,0-1-0.2-1.4-0.6c-0.4-0.4-0.6-0.8-0.6-1.4c0-0.5,0.2-1,0.6-1.4C21.7,11,22.2,10.8,22.8,10.8z"/>
	</g>
</g>
</svg>
