<svg height="16" viewBox="0 0 16 16" width="16" xmlns="http://www.w3.org/2000/svg"><path d="m98.0000593 25.0001185c-2.1725317 0-2.4453375.0090134-3.2986067.0480715-.8514666.0387577-1.4328314.1739588-1.941488.3716529-.5260825.2046043-.9725466.478011-1.4172081.9229729-.4449619.4446614-.7183686.8908251-.9226725 1.4169076-.1979945.5089571-.3331956 1.0903219-.3719532 1.9417884-.0390581.8532693-.0480715 1.1260751-.0480715 3.2986067 0 2.1725317.0090134 2.4453375.0480715 3.2983062.0387576.8514666.1739587 1.4331318.3719532 1.9420889.2043039.5257821.4777106.9722462.9226725 1.4169077.4446615.4449618.8911256.7183685 1.4172081.9226724.5086566.1979945 1.0900214.3331957 1.941488.3719533.8532692.0390581 1.126075.0480715 3.2986067.0480715s2.4453377-.0090134 3.2986067-.0480715c.851466-.0387576 1.432831-.1739588 1.941788-.3719533.526083-.2043039.972247-.4777106 1.416908-.9226724.444962-.4446615.718369-.8908251.922672-1.4169077.197995-.5089571.333196-1.0906223.372254-1.9420889.038758-.8529687.048072-1.1257745.048072-3.2983062 0-2.1725316-.009314-2.4453374-.048072-3.2986067-.039058-.8514665-.174259-1.4328313-.372254-1.9417884-.204303-.5260825-.47771-.9722462-.922672-1.4169076-.444661-.4449619-.890825-.7183686-1.416908-.9229729-.508957-.1976941-1.090322-.3328952-1.941788-.3716529-.853269-.0390581-1.126075-.0480715-3.2986067-.0480715m0 1.4412439c2.1361777 0 2.3891537.008112 3.2328087.0465692.77996.0357532 1.20359.1661472 1.48541.2755099.373455.1454163.639952.3187741.919968.5984902.279716.2800165.453074.546513.59849.9199685.109363.2818192.239757.7054493.27551 1.4854095.038457.843655.046569 1.0969317.046569 3.2328088s-.008112 2.3891539-.046569 3.2328088c-.035753.7796598-.166147 1.2035904-.27551 1.4854096-.145416.3734555-.318774.6399519-.59849.9199684-.280016.2797161-.546513.453074-.919968.5984903-.28182.1093627-.70545.2397566-1.48541.2755098-.843655.0384572-1.096631.0465693-3.2328087.0465693-2.1361776 0-2.3891539-.0081121-3.2328088-.0465693-.7796598-.0357532-1.2035904-.1661471-1.4854096-.2755098-.3734555-.1454163-.6399519-.3187742-.9199684-.5984903-.2797161-.2800165-.453074-.5465129-.5984903-.9199684-.1093627-.2818192-.2397566-.7057498-.2752094-1.4854096-.0387576-.8436549-.0465692-1.0969317-.0465692-3.2328088s.0078116-2.3891538.0465692-3.2328088c.0354528-.7799602.1658467-1.2035903.2752094-1.4854095.1454163-.3734555.3187742-.639952.5984903-.9199685.2800165-.2797161.5465129-.4530739.9199684-.5984902.2818192-.1093627.7057498-.2397567 1.4854096-.2755099.8436549-.0384572 1.0969316-.0465692 3.2328088-.0465692m0 9.2255229c-1.4724904 0-2.6667669-1.193976-2.6667669-2.6667668s1.1942765-2.6667668 2.6667669-2.6667668c1.4727907 0 2.6667667 1.193976 2.6667667 2.6667668s-1.193976 2.6667668-2.6667667 2.6667668m0-6.7750779c2.2689747 0 4.1083107 1.839336 4.1083107 4.1083111s-1.839336 4.1083111-4.1083107 4.1083111c-2.2689751 0-4.1083112-1.839336-4.1083112-4.1083111s1.8393361-4.1083111 4.1083112-4.1083111zm5.2305407-.1622113c0 .5302888-.42994.9599279-.959928.9599279-.530289 0-.960229-.4296391-.960229-.9599279s.42994-.9599279.960229-.9599279c.529988 0 .959928.4296391.959928.9599279z" fill="#fff" fill-rule="evenodd" transform="translate(-90 -25)"/></svg>