<svg height="16" viewBox="0 0 20 16" width="20" xmlns="http://www.w3.org/2000/svg"><path d="m64.5790263 26.2758762c-.7369426-.7852175-1.7867176-1.2758762-2.9483158-1.2758762-2.2310105 0-4.0392745 1.8085368-4.0392745 4.0392745 0 .3166508.0357289.6248466.1044593.9204964-3.3568799-.1685531-6.3330152-1.7766262-8.3253785-4.2203737-.3474703.5964817-.5465703 1.2903314-.5465703 2.0305469 0 1.4016092.7129415 2.6376653 1.7965362 3.3620619-.6619391-.021001-1.2846038-.2026456-1.8292649-.5051139-.0002728.0166372-.0005455.0338198-.0005455.0507296 0 1.9569071 1.392336 3.5897995 3.2401473 3.9607255-.3390154.092186-.6957589.1415519-1.0639575.1415519-.2604664 0-.513296-.0250921-.7601254-.072276.5141142 1.6045275 2.0057275 2.7723987 3.7730806 2.8048547-1.3822447 1.0835947-3.1239602 1.7291695-5.016228 1.7291695-.3261967 0-.647484-.0193645-.9635893-.0564571 1.7875358 1.1460521 3.9105414 1.8148098 6.191736 1.8148098 7.4294286 0 11.4921587-6.1546434 11.4921587-11.4924315 0-.1750988-.0038183-.3493795-.0117278-.5225692.7893086-.5694804 1.4741579-1.2807855 2.0155462-2.091095-.7243966.32156-1.5027956.5386608-2.3199237.6360289.834038-.4996591 1.4744307-1.2911496 1.7760808-2.2345561-.7803082.4628392-1.644893.7991272-2.5648439.9804991z" fill="#fff" fill-rule="evenodd" transform="translate(-48 -25)"/></svg>