<svg height="16" viewBox="0 0 23 16" width="23" xmlns="http://www.w3.org/2000/svg"><path d="m137.985756 36.1839775-.001198-6.3922133 6.146935 3.2071876zm13.536434-7.7324099s-.222218-1.5675058-.904146-2.2581188c-.865213-.905943-1.834946-.9104352-2.279382-.9637436-3.183529-.2297052-7.959121-.2297052-7.959121-.2297052h-.009883s-4.774993 0-7.958521.2297052c-.444736.0533084-1.414169.0578006-2.279382.9637436-.682228.690613-.904146 2.2581188-.904146 2.2581188s-.227609 1.8406364-.227609 3.6818718v1.7259336c0 1.8409358.227609 3.6821712.227609 3.6821712s.221918 1.5675059.904146 2.2578194c.865213.9059429 2.001759.8771923 2.508488.9724286 1.819972.1745999 7.734507.2282078 7.734507.2282078s4.780383-.0068882 7.963912-.2371923c.444436-.0527094 1.414169-.0575012 2.279382-.9634441.681928-.6903135.904146-2.2578194.904146-2.2578194s.22701-1.8412354.22701-3.6821712v-1.7259336c0-1.8412354-.22701-3.6818718-.22701-3.6818718z" fill="#fff" fill-rule="evenodd" transform="translate(-129 -25)"/></svg>